<svg id="Layer_1" data-name="Layer 1" xmlns="http://www.w3.org/2000/svg" viewBox="0 0 11 13"><path d="M9.76,2.24H8.64V1A.29.29,0,0,0,8.36.74H7.42A.28.28,0,0,0,7.14,1V2.24h-3V1A.29.29,0,0,0,3.86.74H2.92A.28.28,0,0,0,2.64,1V2.24H1.51A1.13,1.13,0,0,0,.39,3.37v.84a.28.28,0,0,0,.28.28h9.94a.29.29,0,0,0,.28-.28V3.37A1.14,1.14,0,0,0,9.76,2.24Z" style="fill:#fcfaff"/><path d="M10.61,5.24H.67a.28.28,0,0,0-.28.28v6.1a1.12,1.12,0,0,0,1.12,1.12H9.76a1.13,1.13,0,0,0,1.13-1.12V5.52A.29.29,0,0,0,10.61,5.24Zm-2.14,4L5.86,11.87a.33.33,0,0,1-.45,0L2.8,9.29a.33.33,0,0,1,0-.45l.3-.29a.33.33,0,0,1,.46,0l1.54,1.6V6.34A.32.32,0,0,1,5.42,6h.43a.32.32,0,0,1,.32.32v3.81l1.54-1.6a.32.32,0,0,1,.46,0l.3.29A.31.31,0,0,1,8.47,9.29Z" style="fill:#fcfaff"/></svg>