<svg id="Layer_1" data-name="Layer 1" xmlns="http://www.w3.org/2000/svg" viewBox="0 0 11 13"><path d="M10.54,5.24H.6a.29.29,0,0,0-.28.28v6.1a1.12,1.12,0,0,0,1.13,1.12H9.7a1.12,1.12,0,0,0,1.12-1.12V5.52A.29.29,0,0,0,10.54,5.24ZM8.4,9.14l-.29.3a.33.33,0,0,1-.46,0L6.11,7.83v3.81a.32.32,0,0,1-.33.32H5.36A.32.32,0,0,1,5,11.64V7.83L3.49,9.43a.32.32,0,0,1-.45,0l-.3-.3a.31.31,0,0,1,0-.45l2.6-2.57a.32.32,0,0,1,.46,0L8.4,8.69A.31.31,0,0,1,8.4,9.14Z" style="fill:#fcfaff"/><path d="M9.7,2.24H8.57V1A.29.29,0,0,0,8.29.74H7.35A.29.29,0,0,0,7.07,1V2.24h-3V1A.29.29,0,0,0,3.79.74H2.85A.29.29,0,0,0,2.57,1V2.24H1.45A1.13,1.13,0,0,0,.32,3.37v.84a.29.29,0,0,0,.28.28h9.94a.29.29,0,0,0,.28-.28V3.37A1.13,1.13,0,0,0,9.7,2.24Z" style="fill:#fcfaff"/></svg>