<?xml version="1.0" encoding="UTF-8" standalone="no"?><!DOCTYPE svg PUBLIC "-//W3C//DTD SVG 1.1//EN" "http://www.w3.org/Graphics/SVG/1.1/DTD/svg11.dtd"><svg width="100%" height="100%" viewBox="0 0 3516 7813" version="1.1" xmlns="http://www.w3.org/2000/svg" xmlns:xlink="http://www.w3.org/1999/xlink" xml:space="preserve" xmlns:serif="http://www.serif.com/" style="fill-rule:evenodd;clip-rule:evenodd;stroke-linejoin:round;stroke-miterlimit:2;"><rect id="BGlogin" x="0" y="0" width="3515.62" height="7812.5" style="fill:#323232;"/><clipPath id="_clip1"><rect x="0" y="0" width="3515.62" height="7812.5"/></clipPath><g clip-path="url(#_clip1)"><rect x="0" y="0" width="3515.62" height="7812.5" style="fill:#5c6df9;"/><g><path d="M1939.66,0l-1844.08,0l1662.24,2133.14l181.846,-2133.14Z" style="fill:#759cff;"/><path d="M3045.49,0l-573.959,0l-713.717,2133.14l1287.68,-2133.14Z" style="fill:#759cff;"/><path d="M3515.62,2133.14l0,-257.996l-1757.81,257.996l1757.81,0Z" style="fill:#759cff;"/><path d="M3515.62,1514.89l0,-1435.38l-1757.81,2053.63l1757.81,-618.248Z" style="fill:#759cff;"/><path d="M0,2176.04l0,-997.01l1757.81,954.103l-1757.81,42.907Z" style="fill:#759cff;"/><rect x="854.858" y="1954.91" width="366.859" height="715.132" style="fill:#fff;"/><rect x="1725.66" y="1454.57" width="222.184" height="264.831" style="fill:#fff;"/><rect x="1649.62" y="1586.99" width="457.281" height="1273.13" style="fill:#fff;"/><rect x="2035.94" y="2469.27" width="688.761" height="620.326" style="fill:#fff;"/><rect x="1165.48" y="2106.63" width="437.868" height="753.493" style="fill:#fff;"/><rect x="2196.29" y="1983.65" width="437.868" height="876.466" style="fill:#fff;"/><rect x="1395.58" y="1848.95" width="441.167" height="821.095" style="fill:#fff;"/><rect x="1929.07" y="1749.48" width="431.871" height="920.559" style="fill:#fff;"/><path d="M3515.62,7812.5l-3515.62,0l0,-5429.2c421.304,-138.365 1052.65,-226.357 1757.81,-226.357c705.166,0 1336.51,87.992 1757.81,226.357l0,5429.2Z" style="fill:url(#_Linear2);"/><g><g><path d="M1320.33,2605.49c-75.997,0 -137.499,-61.933 -137.499,-137.976c0,-75.652 61.502,-137.586 137.499,-137.586c39.566,-0.257 77.564,16.993 103.419,46.789c8.23,9.801 7.446,23.915 -1.959,32.148c-9.401,8.626 -23.896,7.449 -32.122,-1.96c-17.628,-19.995 -42.699,-31.364 -69.338,-31.364c-50.534,0 -92.058,41.166 -92.058,91.775c0,51.003 41.524,92.169 92.058,92.169c26.639,0 51.71,-11.369 69.338,-31.364c8.226,-9.41 22.721,-10.587 32.122,-1.96c9.405,8.233 10.189,22.347 1.959,32.148c-25.855,29.934 -63.853,47.181 -103.419,47.181Z" style="fill:#fff;fill-rule:nonzero;"/><path d="M1579.56,2468.45c-12.533,0 -22.715,-10.192 -22.715,-22.735l0,-92.663c0,-12.543 10.182,-22.736 22.715,-22.736c12.532,0 23.106,10.193 23.106,22.736l0,92.663c0,12.543 -10.574,22.735 -23.106,22.735Z" style="fill:#fff;fill-rule:nonzero;"/><path d="M1923.36,2330.32l-170.493,0c-12.545,0 -22.738,10.183 -22.738,22.715c0,12.532 10.193,22.714 22.738,22.714l62.336,0l0,207.002c0,12.545 10.182,22.739 22.715,22.739c12.923,0 23.106,-10.194 23.106,-22.739l0,-207.002l62.336,0c12.545,0 22.738,-10.182 22.738,-22.714c0,-12.532 -10.193,-22.715 -22.738,-22.715Z" style="fill:#fff;fill-rule:nonzero;"/><path d="M2264.44,2334.25c-10.585,-7.054 -24.699,-4.31 -31.756,5.879l-59.959,87.408l-59.567,-87.408c-7.057,-10.189 -21.17,-12.933 -31.756,-5.879c-10.193,7.055 -12.937,21.166 -5.881,31.749l74.49,108.966l0,107.791c0,12.542 10.182,22.734 22.714,22.734c12.924,0 23.106,-10.192 23.106,-22.734l0,-107.791l74.49,-108.966c7.057,-10.583 4.312,-24.694 -5.881,-31.749Z" style="fill:#fff;fill-rule:nonzero;"/></g><g><path d="M1409.38,2957.16l-130.908,0c-12.542,0 -22.733,-10.191 -22.733,-22.735l0,-229.698c0,-12.543 10.191,-22.736 22.733,-22.736c12.542,0 22.733,10.193 22.733,22.736l0,206.964l108.175,0c12.934,0 23.124,10.191 23.124,22.734c0,12.544 -10.19,22.735 -23.124,22.735Z" style="fill:#fff;fill-rule:nonzero;"/><path d="M1582.68,2957.16c-12.532,0 -22.715,-10.191 -22.715,-22.735l0,-118.588c0,-12.543 10.183,-22.736 22.715,-22.736c12.532,0 23.106,10.193 23.106,22.736l0,118.588c0,12.544 -10.574,22.735 -23.106,22.735Z" style="fill:#fff;fill-rule:nonzero;"/><path d="M1840.88,2957.16c-9.408,0 -18.032,-5.876 -21.168,-14.887l-85.066,-229.569c-4.312,-11.752 1.568,-25.072 13.329,-29.381c12.152,-4.312 25.088,1.959 29.4,13.711l63.505,171.589l63.897,-171.589c4.312,-11.752 17.249,-18.023 29.009,-13.711c11.76,4.309 18.034,17.629 13.72,29.381l-85.065,229.569c-3.528,9.011 -11.761,14.887 -21.561,14.887Z" style="fill:#fff;fill-rule:nonzero;"/><path d="M2246.79,2911.33l-127.024,0l0,-74.538l88.603,0c12.545,0 22.739,-10.182 22.739,-22.715c0,-12.923 -10.194,-23.106 -22.739,-23.106l-88.603,0l0,-63.561l127.024,0c12.545,0 22.738,-10.182 22.738,-22.714c0,-12.532 -10.193,-23.106 -22.738,-23.106l-149.739,0c-12.532,0 -22.714,10.574 -22.714,23.106l0,229.74c0,12.533 10.182,22.715 22.714,22.715l149.739,0c12.545,0 22.738,-10.182 22.738,-22.715c0,-12.923 -10.193,-23.106 -22.738,-23.106Z" style="fill:#fff;fill-rule:nonzero;"/></g><circle cx="1576.66" cy="2631.58" r="125.686" style="fill:#fff;"/><path d="M1610.22,2700.47l-67.118,0c-6.28,0 -11.382,-5.103 -11.382,-11.384c0,-26.3 20.802,-41.412 39.25,-54.759c14.914,-10.991 27.862,-20.216 27.862,-32.777c0,-5.888 -4.12,-16.094 -19.422,-16.094c-15.891,0 -19.422,13.15 -19.422,18.253c0,6.281 -5.104,11.384 -11.386,11.384c-6.282,0 -11.386,-5.103 -11.386,-11.384c0,-20.216 15.705,-41.021 42.194,-41.021c16.087,0 26.096,6.674 31.396,12.366c6.871,7.065 10.797,16.683 10.797,26.496c0,24.141 -19.827,38.469 -37.289,51.227c-12.948,9.42 -22.364,16.682 -26.878,24.926l52.781,0c6.282,0 11.386,5.103 11.386,11.383c0,6.281 -5.103,11.384 -11.383,11.384Z" style="fill:#3cbbff;fill-rule:nonzero;"/></g></g></g><defs><linearGradient id="_Linear2" x1="0" y1="0" x2="1" y2="0" gradientUnits="userSpaceOnUse" gradientTransform="matrix(4.3767e-13,7147.69,-7147.69,4.3767e-13,1757.81,2156.95)"><stop offset="0" style="stop-color:#3cbbff;stop-opacity:1"/><stop offset="1" style="stop-color:#0083c9;stop-opacity:1"/></linearGradient></defs></svg>