<?xml version="1.0" encoding="UTF-8" standalone="no"?><!DOCTYPE svg PUBLIC "-//W3C//DTD SVG 1.1//EN" "http://www.w3.org/Graphics/SVG/1.1/DTD/svg11.dtd"><svg width="100%" height="100%" viewBox="0 0 844 1875" version="1.1" xmlns="http://www.w3.org/2000/svg" xmlns:xlink="http://www.w3.org/1999/xlink" xml:space="preserve" xmlns:serif="http://www.serif.com/" style="fill-rule:evenodd;clip-rule:evenodd;stroke-linejoin:round;stroke-miterlimit:2;"><rect id="BGlogin" x="0" y="0" width="843.75" height="1875" style="fill:#323232;"/><clipPath id="_clip1"><rect x="0" y="0" width="843.75" height="1875"/></clipPath><g clip-path="url(#_clip1)"><rect x="0" y="0" width="843.75" height="1875" style="fill:#5c6df9;"/><g><path d="M465.518,0l-442.58,0l398.937,511.953l43.643,-511.953Z" style="fill:#759cff;"/><path d="M730.917,0l-137.75,0l-171.292,511.953l309.042,-511.953Z" style="fill:#759cff;"/><path d="M843.75,511.953l0,-61.919l-421.875,61.919l421.875,0Z" style="fill:#759cff;"/><path d="M843.75,363.573l0,-344.491l-421.875,492.871l421.875,-148.38Z" style="fill:#759cff;"/><path d="M0,522.25l0,-239.282l421.875,228.985l-421.875,10.297Z" style="fill:#759cff;"/><rect x="205.166" y="469.179" width="88.046" height="171.632" style="fill:#fff;"/><rect x="414.157" y="349.097" width="53.324" height="63.559" style="fill:#fff;"/><rect x="395.909" y="380.877" width="109.747" height="305.552" style="fill:#fff;"/><rect x="488.627" y="592.626" width="165.303" height="148.878" style="fill:#fff;"/><rect x="279.715" y="505.591" width="105.088" height="180.838" style="fill:#fff;"/><rect x="527.109" y="476.077" width="105.088" height="210.352" style="fill:#fff;"/><rect x="334.939" y="443.747" width="105.88" height="197.063" style="fill:#fff;"/><rect x="462.977" y="419.876" width="103.649" height="220.934" style="fill:#fff;"/><path d="M843.75,1875l-843.75,0l0,-1303.01c101.113,-33.208 252.635,-54.326 421.875,-54.326c169.24,0 320.762,21.118 421.875,54.326l0,1303.01Z" style="fill:url(#_Linear2);"/><g><g><path d="M316.879,625.317c-18.24,0 -33,-14.864 -33,-33.114c0,-18.156 14.76,-33.02 33,-33.02c9.495,-0.062 18.615,4.078 24.82,11.229c1.975,2.352 1.787,5.739 -0.47,7.715c-2.256,2.071 -5.735,1.788 -7.709,-0.47c-4.231,-4.799 -10.248,-7.527 -16.641,-7.527c-12.129,0 -22.094,9.879 -22.094,22.026c0,12.24 9.965,22.12 22.094,22.12c6.393,0 12.41,-2.728 16.641,-7.527c1.974,-2.259 5.453,-2.541 7.709,-0.471c2.257,1.976 2.445,5.364 0.47,7.716c-6.205,7.184 -15.325,11.323 -24.82,11.323Z" style="fill:#fff;fill-rule:nonzero;"/><path d="M379.094,592.429c-3.008,0 -5.452,-2.446 -5.452,-5.457l0,-22.239c0,-3.01 2.444,-5.456 5.452,-5.456c3.007,0 5.545,2.446 5.545,5.456l0,22.239c0,3.011 -2.538,5.457 -5.545,5.457Z" style="fill:#fff;fill-rule:nonzero;"/><path d="M461.606,559.277l-40.918,0c-3.011,0 -5.457,2.443 -5.457,5.451c0,3.008 2.446,5.452 5.457,5.452l14.961,0l0,49.68c0,3.011 2.443,5.457 5.451,5.457c3.102,0 5.545,-2.446 5.545,-5.457l0,-49.68l14.961,0c3.011,0 5.457,-2.444 5.457,-5.452c0,-3.008 -2.446,-5.451 -5.457,-5.451Z" style="fill:#fff;fill-rule:nonzero;"/><path d="M543.466,560.22c-2.541,-1.693 -5.928,-1.035 -7.622,1.411l-14.39,20.978l-14.296,-20.978c-1.693,-2.446 -5.081,-3.104 -7.621,-1.411c-2.447,1.693 -3.105,5.08 -1.412,7.62l17.878,26.151l0,25.87c0,3.01 2.444,5.456 5.451,5.456c3.102,0 5.546,-2.446 5.546,-5.456l0,-25.87l17.877,-26.151c1.694,-2.54 1.035,-5.927 -1.411,-7.62Z" style="fill:#fff;fill-rule:nonzero;"/></g><g><path d="M338.25,709.717l-31.418,0c-3.01,0 -5.456,-2.446 -5.456,-5.456l0,-55.128c0,-3.01 2.446,-5.456 5.456,-5.456c3.01,0 5.456,2.446 5.456,5.456l0,49.672l25.962,0c3.104,0 5.55,2.445 5.55,5.456c0,3.01 -2.446,5.456 -5.55,5.456Z" style="fill:#fff;fill-rule:nonzero;"/><path d="M379.843,709.717c-3.008,0 -5.451,-2.446 -5.451,-5.456l0,-28.461c0,-3.011 2.443,-5.457 5.451,-5.457c3.008,0 5.546,2.446 5.546,5.457l0,28.461c0,3.01 -2.538,5.456 -5.546,5.456Z" style="fill:#fff;fill-rule:nonzero;"/><path d="M441.81,709.717c-2.258,0 -4.327,-1.41 -5.08,-3.573l-20.416,-55.096c-1.035,-2.821 0.376,-6.017 3.199,-7.052c2.916,-1.035 6.021,0.47 7.056,3.291l15.241,41.181l15.336,-41.181c1.035,-2.821 4.139,-4.326 6.962,-3.291c2.822,1.035 4.328,4.231 3.293,7.052l-20.416,55.096c-0.847,2.163 -2.823,3.573 -5.175,3.573Z" style="fill:#fff;fill-rule:nonzero;"/><path d="M539.229,698.72l-30.486,0l0,-17.889l21.265,0c3.01,0 5.457,-2.444 5.457,-5.451c0,-3.102 -2.447,-5.546 -5.457,-5.546l-21.265,0l0,-15.255l30.486,0c3.01,0 5.457,-2.443 5.457,-5.451c0,-3.008 -2.447,-5.546 -5.457,-5.546l-35.938,0c-3.007,0 -5.451,2.538 -5.451,5.546l0,55.138c0,3.007 2.444,5.451 5.451,5.451l35.938,0c3.01,0 5.457,-2.444 5.457,-5.451c0,-3.102 -2.447,-5.546 -5.457,-5.546Z" style="fill:#fff;fill-rule:nonzero;"/></g><circle cx="378.399" cy="631.578" r="30.165" style="fill:#fff;"/><path d="M386.453,648.112l-16.108,0c-1.508,0 -2.732,-1.225 -2.732,-2.732c0,-6.312 4.992,-9.939 9.42,-13.142c3.579,-2.638 6.687,-4.852 6.687,-7.867c0,-1.413 -0.989,-3.862 -4.662,-3.862c-3.813,0 -4.661,3.156 -4.661,4.38c0,1.508 -1.225,2.733 -2.733,2.733c-1.507,0 -2.732,-1.225 -2.732,-2.733c0,-4.851 3.769,-9.845 10.126,-9.845c3.861,0 6.263,1.602 7.536,2.968c1.648,1.696 2.591,4.004 2.591,6.359c0,5.794 -4.759,9.233 -8.95,12.295c-3.107,2.261 -5.367,4.004 -6.45,5.982l12.667,0c1.508,0 2.733,1.225 2.733,2.732c0,1.507 -1.225,2.732 -2.732,2.732Z" style="fill:#3cbbff;fill-rule:nonzero;"/></g></g></g><defs><linearGradient id="_Linear2" x1="0" y1="0" x2="1" y2="0" gradientUnits="userSpaceOnUse" gradientTransform="matrix(1.05041e-13,1715.44,-1715.44,1.05041e-13,421.875,517.667)"><stop offset="0" style="stop-color:#3cbbff;stop-opacity:1"/><stop offset="1" style="stop-color:#0083c9;stop-opacity:1"/></linearGradient></defs></svg>