<?xml version="1.0" encoding="UTF-8" standalone="no"?>
<!DOCTYPE svg PUBLIC "-//W3C//DTD SVG 1.1//EN" "http://www.w3.org/Graphics/SVG/1.1/DTD/svg11.dtd">
<svg width="100%" height="100%" viewBox="0 0 1125 2500" version="1.1" xmlns="http://www.w3.org/2000/svg" xmlns:xlink="http://www.w3.org/1999/xlink" xml:space="preserve" xmlns:serif="http://www.serif.com/" style="fill-rule:evenodd;clip-rule:evenodd;stroke-linejoin:round;stroke-miterlimit:2;">
    <g id="BGlogin" transform="matrix(1,0,0,1.02627,0,0)">
        <rect x="0" y="0" width="1125" height="2436" style="fill:rgb(50,50,50);"/>
        <clipPath id="_clip1">
            <rect x="0" y="0" width="1125" height="2436"/>
        </clipPath>
        <g clip-path="url(#_clip1)">
            <rect x="0" y="0" width="1125" height="2436" style="fill:rgb(92,109,249);"/>
            <g transform="matrix(0.95258,0,0,0.928194,138.477,-482.19)">
                <g transform="matrix(0.532636,0,0,0.588992,63.6955,555.316)">
                    <path d="M830.816,-60.823L-332.234,-60.823L716.127,1155.8L830.816,-60.823Z" style="fill:rgb(117,156,255);"/>
                </g>
                <g transform="matrix(0.532636,0,0,0.588992,63.6955,555.316)">
                    <path d="M1528.26,-60.823L1166.26,-60.823L716.127,1155.8L1528.26,-60.823Z" style="fill:rgb(117,156,255);"/>
                </g>
                <g transform="matrix(0.532636,0,0,0.588992,63.6955,555.316)">
                    <path d="M1824.77,1155.8L1824.77,1008.66L716.127,1155.8L1824.77,1155.8Z" style="fill:rgb(117,156,255);"/>
                </g>
                <g transform="matrix(0.532636,0,0,0.588992,63.6955,555.316)">
                    <path d="M1824.77,803.188L1824.77,-15.477L716.127,1155.8L1824.77,803.188Z" style="fill:rgb(117,156,255);"/>
                </g>
                <g transform="matrix(0.532636,0,0,0.588992,63.6955,555.316)">
                    <path d="M-392.512,1180.28L-392.512,611.634L716.127,1155.8L-392.512,1180.28Z" style="fill:rgb(117,156,255);"/>
                </g>
                <g transform="matrix(0.532636,0,0,0.588992,-143.711,815.88)">
                    <rect x="536.037" y="611.765" width="231.375" height="407.873" style="fill:white;"/>
                </g>
                <g transform="matrix(0.322585,0,0,0.218118,261.411,874.689)">
                    <rect x="536.037" y="611.765" width="231.375" height="407.873" style="fill:white;"/>
                </g>
                <g transform="matrix(0.663918,0,0,1.04857,52.9009,411.131)">
                    <rect x="536.037" y="611.765" width="231.375" height="407.873" style="fill:white;"/>
                </g>
                <g transform="matrix(1,0,0,0.510909,2.52658,1036.44)">
                    <rect x="536.037" y="611.765" width="231.375" height="407.873" style="fill:white;"/>
                </g>
                <g transform="matrix(0.635732,0,0,0.620587,-94.628,847.518)">
                    <rect x="536.037" y="611.765" width="231.375" height="407.873" style="fill:white;"/>
                </g>
                <g transform="matrix(0.635732,0,0,0.721869,251.651,744.247)">
                    <rect x="536.037" y="611.765" width="231.375" height="407.873" style="fill:white;"/>
                </g>
                <g transform="matrix(0.640523,0,0,0.676265,-19.8977,726.894)">
                    <rect x="536.037" y="611.765" width="231.375" height="407.873" style="fill:white;"/>
                </g>
                <g transform="matrix(0.627026,0,0,0.758185,166.552,643.365)">
                    <rect x="536.037" y="611.765" width="231.375" height="407.873" style="fill:white;"/>
                </g>
                <g transform="matrix(1.04978,0,0,1.04978,-145.371,519.492)">
                    <path d="M1125,2500L0,2500L0,762.657C134.817,718.381 336.847,690.223 562.5,690.223C788.153,690.223 990.183,718.381 1125,762.657L1125,2500Z" style="fill:url(#_Linear2);"/>
                </g>
                <g transform="matrix(1,0,0,1,0,19.762)">
                    <g transform="matrix(2.63402,0,0,2.63402,-3694.06,-245.749)">
                        <g transform="matrix(50,0,0,50,1497.1,615.314)">
                            <path d="M0.371,0C0.177,0 0.02,-0.158 0.02,-0.352C0.02,-0.545 0.177,-0.703 0.371,-0.703C0.472,-0.704 0.569,-0.66 0.635,-0.584C0.656,-0.559 0.654,-0.523 0.63,-0.502C0.606,-0.48 0.569,-0.483 0.548,-0.507C0.503,-0.558 0.439,-0.587 0.371,-0.587C0.242,-0.587 0.136,-0.482 0.136,-0.353C0.136,-0.222 0.242,-0.117 0.371,-0.117C0.439,-0.117 0.503,-0.146 0.548,-0.197C0.569,-0.221 0.606,-0.224 0.63,-0.202C0.654,-0.181 0.656,-0.145 0.635,-0.12C0.569,-0.044 0.472,0 0.371,0Z" style="fill:white;fill-rule:nonzero;"/>
                        </g>
                        <g transform="matrix(50,0,0,50,1544.55,615.314)">
                            <path d="M0.083,-0.35C0.051,-0.35 0.025,-0.376 0.025,-0.408L0.025,-0.644C0.025,-0.676 0.051,-0.702 0.083,-0.702C0.115,-0.702 0.142,-0.676 0.142,-0.644L0.142,-0.408C0.142,-0.376 0.115,-0.35 0.083,-0.35Z" style="fill:white;fill-rule:nonzero;"/>
                        </g>
                        <g transform="matrix(50,0,0,50,1566.9,615.314)">
                            <path d="M0.513,-0.702L0.078,-0.702C0.046,-0.702 0.02,-0.676 0.02,-0.644C0.02,-0.612 0.046,-0.586 0.078,-0.586L0.237,-0.586L0.237,-0.058C0.237,-0.026 0.263,0 0.295,0C0.328,0 0.354,-0.026 0.354,-0.058L0.354,-0.586L0.513,-0.586C0.545,-0.586 0.571,-0.612 0.571,-0.644C0.571,-0.676 0.545,-0.702 0.513,-0.702Z" style="fill:white;fill-rule:nonzero;"/>
                        </g>
                        <g transform="matrix(50,0,0,50,1610.45,615.314)">
                            <path d="M0.512,-0.692C0.485,-0.71 0.449,-0.703 0.431,-0.677L0.278,-0.454L0.126,-0.677C0.108,-0.703 0.072,-0.71 0.045,-0.692C0.019,-0.674 0.012,-0.638 0.03,-0.611L0.22,-0.333L0.22,-0.058C0.22,-0.026 0.246,0 0.278,0C0.311,0 0.337,-0.026 0.337,-0.058L0.337,-0.333L0.527,-0.611C0.545,-0.638 0.538,-0.674 0.512,-0.692Z" style="fill:white;fill-rule:nonzero;"/>
                        </g>
                    </g>
                    <g transform="matrix(2.63402,0,0,2.63402,-3669.57,-127.614)">
                        <g transform="matrix(50,0,0,50,1497.1,615.314)">
                            <path d="M0.412,0L0.078,0C0.046,0 0.02,-0.026 0.02,-0.058L0.02,-0.644C0.02,-0.676 0.046,-0.702 0.078,-0.702C0.11,-0.702 0.136,-0.676 0.136,-0.644L0.136,-0.116L0.412,-0.116C0.445,-0.116 0.471,-0.09 0.471,-0.058C0.471,-0.026 0.445,0 0.412,0Z" style="fill:white;fill-rule:nonzero;"/>
                        </g>
                        <g transform="matrix(50,0,0,50,1535.65,615.314)">
                            <path d="M0.083,0C0.051,0 0.025,-0.026 0.025,-0.058L0.025,-0.361C0.025,-0.393 0.051,-0.419 0.083,-0.419C0.115,-0.419 0.142,-0.393 0.142,-0.361L0.142,-0.058C0.142,-0.026 0.115,0 0.083,0Z" style="fill:white;fill-rule:nonzero;"/>
                        </g>
                        <g transform="matrix(50,0,0,50,1558,615.314)">
                            <path d="M0.295,0C0.271,0 0.249,-0.015 0.241,-0.038L0.024,-0.624C0.013,-0.654 0.028,-0.688 0.058,-0.699C0.089,-0.71 0.122,-0.694 0.133,-0.664L0.295,-0.226L0.458,-0.664C0.469,-0.694 0.502,-0.71 0.532,-0.699C0.562,-0.688 0.578,-0.654 0.567,-0.624L0.35,-0.038C0.341,-0.015 0.32,0 0.295,0Z" style="fill:white;fill-rule:nonzero;"/>
                        </g>
                        <g transform="matrix(50,0,0,50,1601.5,615.314)">
                            <path d="M0.46,-0.117L0.136,-0.117L0.136,-0.307L0.362,-0.307C0.394,-0.307 0.42,-0.333 0.42,-0.365C0.42,-0.398 0.394,-0.424 0.362,-0.424L0.136,-0.424L0.136,-0.586L0.46,-0.586C0.492,-0.586 0.518,-0.612 0.518,-0.644C0.518,-0.676 0.492,-0.703 0.46,-0.703L0.078,-0.703C0.046,-0.703 0.02,-0.676 0.02,-0.644L0.02,-0.058C0.02,-0.026 0.046,0 0.078,0L0.46,0C0.492,0 0.518,-0.026 0.518,-0.058C0.518,-0.091 0.492,-0.117 0.46,-0.117Z" style="fill:white;fill-rule:nonzero;"/>
                        </g>
                    </g>
                    <g transform="matrix(1,0,0,1,-3.64504,2.48368)">
                        <circle cx="387.922" cy="1381.27" r="42.222" style="fill:white;"/>
                    </g>
                    <g transform="matrix(65.9449,0,0,65.9449,367.856,1406.9)">
                        <path d="M0.42,0L0.078,0C0.046,0 0.02,-0.026 0.02,-0.058C0.02,-0.192 0.126,-0.269 0.22,-0.337C0.296,-0.393 0.362,-0.44 0.362,-0.504C0.362,-0.534 0.341,-0.586 0.263,-0.586C0.182,-0.586 0.164,-0.519 0.164,-0.493C0.164,-0.461 0.138,-0.435 0.106,-0.435C0.074,-0.435 0.048,-0.461 0.048,-0.493C0.048,-0.596 0.128,-0.702 0.263,-0.702C0.345,-0.702 0.396,-0.668 0.423,-0.639C0.458,-0.603 0.478,-0.554 0.478,-0.504C0.478,-0.381 0.377,-0.308 0.288,-0.243C0.222,-0.195 0.174,-0.158 0.151,-0.116L0.42,-0.116C0.452,-0.116 0.478,-0.09 0.478,-0.058C0.478,-0.026 0.452,0 0.42,0Z" style="fill:rgb(60,187,255);fill-rule:nonzero;"/>
                    </g>
                </g>
            </g>
        </g>
    </g>
    <defs>
        <linearGradient id="_Linear2" x1="0" y1="0" x2="1" y2="0" gradientUnits="userSpaceOnUse" gradientTransform="matrix(1.40054e-13,2287.26,-2287.26,1.40054e-13,562.5,690.223)"><stop offset="0" style="stop-color:rgb(60,187,255);stop-opacity:1"/><stop offset="1" style="stop-color:rgb(0,131,201);stop-opacity:1"/></linearGradient>
    </defs>
</svg>
